<?xml version="1.0" encoding="UTF-8" standalone="no"?>
<svg
   xmlns:dc="http://purl.org/dc/elements/1.1/"
   xmlns:cc="http://creativecommons.org/ns#"
   xmlns:rdf="http://www.w3.org/1999/02/22-rdf-syntax-ns#"
   xmlns:svg="http://www.w3.org/2000/svg"
   xmlns="http://www.w3.org/2000/svg"
   xmlns:sodipodi="http://sodipodi.sourceforge.net/DTD/sodipodi-0.dtd"
   xmlns:inkscape="http://www.inkscape.org/namespaces/inkscape"
   version="1.1"
   id="svg2"
   xml:space="preserve"
   width="1200"
   height="1200"
   viewBox="0 0 1200 1200"
   sodipodi:docname="678.eps"><metadata
     id="metadata8"><rdf:RDF><cc:Work
         rdf:about=""><dc:format>image/svg+xml</dc:format><dc:type
           rdf:resource="http://purl.org/dc/dcmitype/StillImage" /></cc:Work></rdf:RDF></metadata><defs
     id="defs6"><clipPath
       clipPathUnits="userSpaceOnUse"
       id="clipPath166"><path
         d="m 5008.5,2212.43 c 34.76,584.29 25.38,1124.48 -20.14,1233.88 -46.68,67.93 -327,235.04 -603.07,358.9 l 155.15,346.08 c 193.76,-86.84 657.3,-310.89 776.56,-515.45 50.35,-86.34 98.64,-254.94 75.05,-850.72 -12.35,-312.05 -27.59,-556.51 -27.59,-556.51 l -355.96,-16.18"
         id="path164" /></clipPath></defs><sodipodi:namedview
     pagecolor="#ffffff"
     bordercolor="#666666"
     borderopacity="1"
     objecttolerance="10"
     gridtolerance="10"
     guidetolerance="10"
     inkscape:pageopacity="0"
     inkscape:pageshadow="2"
     inkscape:window-width="640"
     inkscape:window-height="480"
     id="namedview4" /><g
     id="g10"
     inkscape:groupmode="layer"
     inkscape:label="ink_ext_XXXXXX"
     transform="matrix(1.3333333,0,0,-1.3333333,0,1200)"><g
       id="g12"
       transform="scale(0.1)"><path
         d="M 7965.46,1744.66 H 1061.05 c -54.42,0 -98.948,44.52 -98.948,98.95 0,54.42 44.528,98.95 98.948,98.95 h 6904.41 c 54.42,0 98.95,-44.53 98.95,-98.95 0,-54.43 -44.53,-98.95 -98.95,-98.95"
         style="fill:#9386ac;fill-opacity:1;fill-rule:nonzero;stroke:none"
         id="path14" /><path
         d="m 6427.82,5860.82 v 0 c -49.03,52.29 -44.78,132.98 9.49,180.22 l 6.14,5.34 c 54.26,47.24 138,43.15 187.03,-9.14 49.03,-52.28 44.78,-132.97 -9.48,-180.21 l -6.15,-5.34 c -54.26,-47.25 -138,-43.15 -187.03,9.13"
         style="fill:#192645;fill-opacity:1;fill-rule:nonzero;stroke:none"
         id="path16" /><path
         d="m 6531.95,5607.07 -128.96,-112.27 -366.2,390.54 128.97,112.26 c 89.35,77.79 217.52,88.13 316.99,34.14 25.13,-13.59 48.37,-31.24 68.76,-52.98 50.52,-53.88 73.63,-122.42 70.18,-189.75 -3.64,-67.33 -33.83,-133.27 -89.74,-181.94"
         style="fill:#f14e30;fill-opacity:1;fill-rule:nonzero;stroke:none"
         id="path18" /><path
         d="m 6415.43,5731.33 -128.96,-112.27 -249.68,266.28 128.97,112.26 c 89.35,77.79 217.52,88.13 316.99,34.14 17.09,-37.67 24.54,-78.26 22.42,-118.47 -3.63,-67.33 -33.82,-133.27 -89.74,-181.94"
         style="fill:#f8a12b;fill-opacity:1;fill-rule:nonzero;stroke:none"
         id="path20" /><path
         d="m 6409.66,5496.3 c -38.9,-34.74 -153.87,23.3 -256.79,129.87 -102.92,106.57 -154.95,221.16 -115.98,256.01 30.68,27.54 109.02,-3.01 191.41,-69.69 21.69,-17.72 43.82,-37.86 65.27,-60.12 25.1,-26.02 47.22,-52.49 65.67,-78.19 57.31,-79.55 79.82,-151.57 50.42,-177.88"
         style="fill:#2f3564;fill-opacity:1;fill-rule:nonzero;stroke:none"
         id="path22" /><path
         d="m 6359.24,5674.18 c -29.8,-32.83 -80.49,-42.2 -121.56,-19.84 -46.92,25.53 -63.52,83.07 -36.96,128.37 7.08,12.08 16.56,22.17 27.58,29.78 21.69,-17.72 43.82,-37.86 65.27,-60.12 25.1,-26.02 47.22,-52.49 65.67,-78.19"
         style="fill:#ffffff;fill-opacity:1;fill-rule:nonzero;stroke:none"
         id="path24" /><path
         d="m 7079.13,4597.9 334.3,1079.08 -676.96,450.96 -142.08,-120.79"
         style="fill:none;stroke:#192645;stroke-width:52.2908;stroke-linecap:butt;stroke-linejoin:miter;stroke-miterlimit:10;stroke-dasharray:none;stroke-opacity:1"
         id="path26" /><path
         d="m 6810.8,6121.53 c 0,-44.3 -37.26,-80.21 -83.23,-80.21 -45.98,0 -83.24,35.91 -83.24,80.21 0,44.29 37.26,80.2 83.24,80.2 45.97,0 83.23,-35.91 83.23,-80.2"
         style="fill:#192645;fill-opacity:1;fill-rule:nonzero;stroke:none"
         id="path28" /><path
         d="m 6769.18,6121.53 c 0,-22.15 -18.63,-40.11 -41.61,-40.11 -22.99,0 -41.62,17.96 -41.62,40.11 0,22.14 18.63,40.09 41.62,40.09 22.98,0 41.61,-17.95 41.61,-40.09"
         style="fill:#2f3564;fill-opacity:1;fill-rule:nonzero;stroke:none"
         id="path30" /><path
         d="m 7415.65,4461.2 h -861.22 c 0,94.5 76.61,171.1 171.1,171.1 h 519.02 c 94.5,0 171.1,-76.6 171.1,-171.1"
         style="fill:#f8a12b;fill-opacity:1;fill-rule:nonzero;stroke:none"
         id="path32" /><path
         d="M 6887.38,4628.02 H 6732 v 47.05 h 155.38 v -47.05"
         style="fill:#192645;fill-opacity:1;fill-rule:nonzero;stroke:none"
         id="path34" /><path
         d="m 7523.3,5665.98 c 0,-62.01 -52.17,-112.28 -116.53,-112.28 -64.36,0 -116.53,50.27 -116.53,112.28 0,62.01 52.17,112.28 116.53,112.28 64.36,0 116.53,-50.27 116.53,-112.28"
         style="fill:#192645;fill-opacity:1;fill-rule:nonzero;stroke:none"
         id="path36" /><path
         d="m 7465.03,5665.98 c 0,-31 -26.08,-56.14 -58.26,-56.14 -32.18,0 -58.27,25.14 -58.27,56.14 0,31.01 26.09,56.14 58.27,56.14 32.18,0 58.26,-25.13 58.26,-56.14"
         style="fill:#2f3564;fill-opacity:1;fill-rule:nonzero;stroke:none"
         id="path38" /><path
         d="m 7904.83,4711.57 h -789.91 v 273.26 h 789.91 c 33.39,0 60.46,-27.07 60.46,-60.46 v -152.35 c 0,-33.39 -27.07,-60.45 -60.46,-60.45"
         style="fill:#581b3a;fill-opacity:1;fill-rule:nonzero;stroke:none"
         id="path40" /><path
         d="m 7617.18,4711.57 h -789.9 v 273.26 h 789.9 c 33.39,0 60.46,-27.07 60.46,-60.46 v -152.35 c 0,-33.39 -27.07,-60.45 -60.46,-60.45"
         style="fill:#581b3a;fill-opacity:1;fill-rule:nonzero;stroke:none"
         id="path42" /><path
         d="m 7578.09,4749.11 h -750.81 v 208.47 h 750.81 c 28.6,0 51.79,-23.18 51.79,-51.79 V 4800.9 c 0,-28.6 -23.19,-51.79 -51.79,-51.79"
         style="fill:#ebedee;fill-opacity:1;fill-rule:nonzero;stroke:none"
         id="path44" /><path
         d="m 7916.75,4857.19 h -179.78 v 19.77 h 179.78 v -19.77"
         style="fill:#ffffff;fill-opacity:1;fill-rule:nonzero;stroke:none"
         id="path46" /><path
         d="m 7916.75,4814.83 h -179.78 v 19.77 h 179.78 v -19.77"
         style="fill:#ffffff;fill-opacity:1;fill-rule:nonzero;stroke:none"
         id="path48" /><path
         d="m 8032.98,5195.16 h -789.91 v 273.26 h 789.91 c 33.39,0 60.46,-27.06 60.46,-60.45 v -152.35 c 0,-33.39 -27.07,-60.46 -60.46,-60.46"
         style="fill:#581b3a;fill-opacity:1;fill-rule:nonzero;stroke:none"
         id="path50" /><path
         d="m 7745.33,5195.16 h -789.91 v 273.26 h 789.91 c 33.39,0 60.46,-27.06 60.46,-60.45 v -152.35 c 0,-33.39 -27.07,-60.46 -60.46,-60.46"
         style="fill:#581b3a;fill-opacity:1;fill-rule:nonzero;stroke:none"
         id="path52" /><path
         d="m 7716.24,5222.7 h -760.82 v 218.47 h 760.82 c 28.6,0 51.79,-23.18 51.79,-51.79 v -114.89 c 0,-28.6 -23.19,-51.79 -51.79,-51.79"
         style="fill:#ebedee;fill-opacity:1;fill-rule:nonzero;stroke:none"
         id="path54" /><path
         d="m 8063.62,5285.05 h -219.93 v 97.08 h 219.93 v -97.08"
         style="fill:#ebedee;fill-opacity:1;fill-rule:nonzero;stroke:none"
         id="path56" /><path
         d="m 8044.89,5340.78 h -179.78 v 19.78 h 179.78 v -19.78"
         style="fill:#192645;fill-opacity:1;fill-rule:nonzero;stroke:none"
         id="path58" /><path
         d="m 8044.89,5308.42 h -179.78 v 19.78 h 179.78 v -19.78"
         style="fill:#192645;fill-opacity:1;fill-rule:nonzero;stroke:none"
         id="path60" /><path
         d="m 7962.36,4452.68 h -789.9 v 273.27 h 789.9 c 33.39,0 60.46,-27.07 60.46,-60.46 v -152.35 c 0,-33.39 -27.07,-60.46 -60.46,-60.46"
         style="fill:#192645;fill-opacity:1;fill-rule:nonzero;stroke:none"
         id="path62" /><path
         d="m 7674.71,4452.68 h -789.9 v 273.27 h 789.9 c 33.39,0 60.46,-27.07 60.46,-60.46 v -152.35 c 0,-33.39 -27.07,-60.46 -60.46,-60.46"
         style="fill:#192645;fill-opacity:1;fill-rule:nonzero;stroke:none"
         id="path64" /><path
         d="m 7635.62,4490.23 h -750.81 v 198.47 h 750.81 c 28.61,0 51.79,-23.19 51.79,-51.79 v -94.89 c 0,-28.61 -23.18,-51.79 -51.79,-51.79"
         style="fill:#ebedee;fill-opacity:1;fill-rule:nonzero;stroke:none"
         id="path66" /><path
         d="m 7993,4542.57 h -219.92 v 97.08 H 7993 v -97.08"
         style="fill:#ebedee;fill-opacity:1;fill-rule:nonzero;stroke:none"
         id="path68" /><path
         d="m 7974.27,4598.31 h -179.78 v 19.77 h 179.78 v -19.77"
         style="fill:#192645;fill-opacity:1;fill-rule:nonzero;stroke:none"
         id="path70" /><path
         d="m 7974.27,4565.94 h -179.78 v 19.78 h 179.78 v -19.78"
         style="fill:#192645;fill-opacity:1;fill-rule:nonzero;stroke:none"
         id="path72" /><path
         d="m 7011.83,5197.13 v -212.5 h 907.7 c 58.66,0 106.26,47.6 106.26,106.25 0,29.27 -11.9,55.86 -31.09,75.17 -19.31,19.18 -45.9,31.08 -75.17,31.08 h -907.7"
         style="fill:#d2322f;fill-opacity:1;fill-rule:nonzero;stroke:none"
         id="path74" /><path
         d="m 6906.35,5197.13 v -212.5 h 763.89 c 58.65,0 106.25,47.6 106.25,106.25 0,29.27 -11.9,55.86 -31.08,75.17 -19.31,19.18 -45.91,31.08 -75.17,31.08 h -763.89"
         style="fill:#f36543;fill-opacity:1;fill-rule:nonzero;stroke:none"
         id="path76" /><path
         d="m 6906.35,5160.7 v -136.24 h 735.23 c 37.65,0 68.12,30.48 68.12,68.12 0,18.82 -7.64,35.82 -19.91,48.21 -12.39,12.26 -29.39,19.91 -48.21,19.91 h -735.23"
         style="fill:#ebedee;fill-opacity:1;fill-rule:nonzero;stroke:none"
         id="path78" /><path
         d="m 6955.34,5409.12 h 786.33"
         style="fill:none;stroke:#9386ac;stroke-width:14.3824;stroke-linecap:butt;stroke-linejoin:miter;stroke-miterlimit:10;stroke-dasharray:none;stroke-opacity:1"
         id="path80" /><path
         d="m 6955.34,5363.57 h 786.33"
         style="fill:none;stroke:#9386ac;stroke-width:14.3824;stroke-linecap:butt;stroke-linejoin:miter;stroke-miterlimit:10;stroke-dasharray:none;stroke-opacity:1"
         id="path82" /><path
         d="m 6955.34,5318.03 h 786.33"
         style="fill:none;stroke:#9386ac;stroke-width:14.3824;stroke-linecap:butt;stroke-linejoin:miter;stroke-miterlimit:10;stroke-dasharray:none;stroke-opacity:1"
         id="path84" /><path
         d="m 6955.34,5272.48 h 786.33"
         style="fill:none;stroke:#9386ac;stroke-width:14.3824;stroke-linecap:butt;stroke-linejoin:miter;stroke-miterlimit:10;stroke-dasharray:none;stroke-opacity:1"
         id="path86" /><path
         d="m 6826.68,4917.72 h 791.03"
         style="fill:none;stroke:#9386ac;stroke-width:14.3824;stroke-linecap:butt;stroke-linejoin:miter;stroke-miterlimit:10;stroke-dasharray:none;stroke-opacity:1"
         id="path88" /><path
         d="m 6826.68,4872.17 h 791.03"
         style="fill:none;stroke:#9386ac;stroke-width:14.3824;stroke-linecap:butt;stroke-linejoin:miter;stroke-miterlimit:10;stroke-dasharray:none;stroke-opacity:1"
         id="path90" /><path
         d="m 6826.68,4826.63 h 791.03"
         style="fill:none;stroke:#9386ac;stroke-width:14.3824;stroke-linecap:butt;stroke-linejoin:miter;stroke-miterlimit:10;stroke-dasharray:none;stroke-opacity:1"
         id="path92" /><path
         d="m 6826.68,4781.08 h 791.03"
         style="fill:none;stroke:#9386ac;stroke-width:14.3824;stroke-linecap:butt;stroke-linejoin:miter;stroke-miterlimit:10;stroke-dasharray:none;stroke-opacity:1"
         id="path94" /><path
         d="m 6886.6,4656.43 h 791.04"
         style="fill:none;stroke:#9386ac;stroke-width:14.3824;stroke-linecap:butt;stroke-linejoin:miter;stroke-miterlimit:10;stroke-dasharray:none;stroke-opacity:1"
         id="path96" /><path
         d="m 6886.6,4610.89 h 791.04"
         style="fill:none;stroke:#9386ac;stroke-width:14.3824;stroke-linecap:butt;stroke-linejoin:miter;stroke-miterlimit:10;stroke-dasharray:none;stroke-opacity:1"
         id="path98" /><path
         d="m 6886.6,4575.35 h 791.04"
         style="fill:none;stroke:#9386ac;stroke-width:14.3824;stroke-linecap:butt;stroke-linejoin:miter;stroke-miterlimit:10;stroke-dasharray:none;stroke-opacity:1"
         id="path100" /><path
         d="m 6886.6,4529.8 h 791.04"
         style="fill:none;stroke:#9386ac;stroke-width:14.3824;stroke-linecap:butt;stroke-linejoin:miter;stroke-miterlimit:10;stroke-dasharray:none;stroke-opacity:1"
         id="path102" /><path
         d="m 2665.36,1742.01 h -230.12 v 2492.95 h 230.12 V 1742.01"
         style="fill:#1a2e4d;fill-opacity:1;fill-rule:nonzero;stroke:none"
         id="path104" /><path
         d="m 4832.31,3511.05 -1373.52,-103.08 -381.13,1934.44 922.57,3.24 c 258.47,0.9 482.1,-179.73 535.58,-432.61 l 296.5,-1401.99"
         style="fill:#5e2b48;fill-opacity:1;fill-rule:nonzero;stroke:none"
         id="path106" /><path
         d="m 3179.46,3498.47 -228.47,1692.71 c -10.17,75.42 43.2,145.44 118.61,155.62 75.41,10.18 145.44,-43.19 155.62,-118.6 l 228.46,-1692.72 c 10.18,-75.41 -43.19,-145.44 -118.6,-155.62 -75.41,-10.18 -145.44,43.2 -155.62,118.61"
         style="fill:#d2322f;fill-opacity:1;fill-rule:nonzero;stroke:none"
         id="path108" /><path
         d="m 4122.83,3266.59 v -949.24 h -160.94 v 949.24 h 160.94"
         style="fill:#484f7b;fill-opacity:1;fill-rule:nonzero;stroke:none"
         id="path110" /><path
         d="m 4122.83,3211.34 v -214.52 l -160.94,62.27 v 145.24 c 40.27,1.9 117.79,5.12 160.94,7.01"
         style="fill:#192645;fill-opacity:1;fill-rule:nonzero;stroke:none"
         id="path112" /><path
         d="M 4415.22,3189.84 H 3696.1 c -39.55,0 -71.91,32.36 -71.91,71.91 0,39.55 32.36,71.91 71.91,71.91 h 719.12 c 39.56,0 71.92,-32.36 71.92,-71.91 0,-39.55 -32.36,-71.91 -71.92,-71.91"
         style="fill:#262e50;fill-opacity:1;fill-rule:nonzero;stroke:none"
         id="path114" /><path
         d="m 4767.17,3276.13 h -826.54 c -98.89,0 -179.81,80.92 -179.81,179.81 0,98.9 80.92,179.81 179.81,179.81 h 826.54 c 98.9,0 179.81,-80.91 179.81,-179.81 0,-98.89 -80.91,-179.81 -179.81,-179.81"
         style="fill:#5e2b48;fill-opacity:1;fill-rule:nonzero;stroke:none"
         id="path116" /><path
         d="m 4040.86,3271.34 h -661.14 c -98.9,0 -179.81,80.91 -179.81,179.81 v 0 c 0,98.89 80.91,179.81 179.81,179.81 h 661.14 c 98.89,0 179.81,-80.92 179.81,-179.81 v 0 c 0,-98.9 -80.92,-179.81 -179.81,-179.81"
         style="fill:#d2322f;fill-opacity:1;fill-rule:nonzero;stroke:none"
         id="path118" /><path
         d="m 4724.45,2000.89 h -100.68 c 0,120.28 -97.86,218.13 -218.13,218.13 h -733.51 c -120.28,0 -218.13,-97.85 -218.13,-218.13 h -100.68 c 0,175.79 143.02,318.81 318.81,318.81 h 733.51 c 175.79,0 318.81,-143.02 318.81,-318.81"
         style="fill:#192645;fill-opacity:1;fill-rule:nonzero;stroke:none"
         id="path120" /><path
         d="m 4158.74,2317.3 h -234.92 v 153.42 h 234.92 V 2317.3"
         style="fill:#192645;fill-opacity:1;fill-rule:nonzero;stroke:none"
         id="path122" /><path
         d="m 3483.45,1903.54 c 0,-46.19 -37.44,-83.63 -83.63,-83.63 -46.18,0 -83.63,37.44 -83.63,83.63 0,46.19 37.45,83.63 83.63,83.63 46.19,0 83.63,-37.44 83.63,-83.63"
         style="fill:#192645;fill-opacity:1;fill-rule:nonzero;stroke:none"
         id="path124" /><path
         d="m 3520.42,1910.92 h -228.87 v 25.41 c 0,60.78 49.27,110.05 110.05,110.05 h 8.77 c 60.78,0 110.05,-49.27 110.05,-110.05 v -25.41"
         style="fill:#2f3564;fill-opacity:1;fill-rule:nonzero;stroke:none"
         id="path126" /><path
         d="m 4762.46,1903.54 c 0,-46.19 -37.44,-83.63 -83.63,-83.63 -46.19,0 -83.63,37.44 -83.63,83.63 0,46.19 37.44,83.63 83.63,83.63 46.19,0 83.63,-37.44 83.63,-83.63"
         style="fill:#192645;fill-opacity:1;fill-rule:nonzero;stroke:none"
         id="path128" /><path
         d="m 4799.43,1910.92 h -228.87 v 25.41 c 0,60.78 49.27,110.05 110.05,110.05 h 8.77 c 60.78,0 110.05,-49.27 110.05,-110.05 v -25.41"
         style="fill:#2f3564;fill-opacity:1;fill-rule:nonzero;stroke:none"
         id="path130" /><path
         d="m 4112.65,1986.51 h -133.26 v 302.03 h 133.26 v -302.03"
         style="fill:#192645;fill-opacity:1;fill-rule:nonzero;stroke:none"
         id="path132" /><path
         d="m 4132.46,1903.54 c 0,-46.19 -37.45,-83.63 -83.63,-83.63 -46.19,0 -83.63,37.44 -83.63,83.63 0,46.19 37.44,83.63 83.63,83.63 46.18,0 83.63,-37.44 83.63,-83.63"
         style="fill:#192645;fill-opacity:1;fill-rule:nonzero;stroke:none"
         id="path134" /><path
         d="m 4169.43,1910.92 h -228.87 v 25.41 c 0,60.78 49.27,110.05 110.05,110.05 h 8.77 c 60.78,0 110.05,-49.27 110.05,-110.05 v -25.41"
         style="fill:#2f3564;fill-opacity:1;fill-rule:nonzero;stroke:none"
         id="path136" /><path
         d="m 5742.83,4814.77 228.12,-65.4 c 16.66,-4.77 34.2,4.95 38.97,21.61 4.78,16.66 -4.94,34.2 -21.6,38.97 l -228.12,65.4 c -16.66,4.78 -34.2,-4.94 -38.97,-21.6 -4.78,-16.66 4.94,-34.2 21.6,-38.98"
         style="fill:#f79073;fill-opacity:1;fill-rule:nonzero;stroke:none"
         id="path138" /><path
         d="m 5805.73,4739.21 183.16,-52.51 c 16.66,-4.78 34.2,4.94 38.98,21.6 4.77,16.66 -4.95,34.2 -21.61,38.97 l -183.17,52.52 c -16.66,4.77 -34.19,-4.95 -38.97,-21.61 v 0 c -4.77,-16.66 4.95,-34.2 21.61,-38.97"
         style="fill:#f79073;fill-opacity:1;fill-rule:nonzero;stroke:none"
         id="path140" /><path
         d="m 5753.67,4696.67 216.8,-62.15 c 16.66,-4.78 34.2,4.95 38.97,21.6 4.78,16.67 -4.94,34.2 -21.6,38.98 l -216.8,62.15 c -16.66,4.78 -34.2,-4.95 -38.97,-21.61 -4.78,-16.66 4.94,-34.19 21.6,-38.97"
         style="fill:#f79073;fill-opacity:1;fill-rule:nonzero;stroke:none"
         id="path142" /><path
         d="m 5572.84,4680.6 232.74,-46.38 c 16.99,-3.38 33.67,7.75 37.06,24.75 3.39,16.99 -7.75,33.67 -24.75,37.06 l -232.73,46.38 c -17,3.39 -33.67,-7.75 -37.06,-24.74 -3.39,-17 7.75,-33.68 24.74,-37.07"
         style="fill:#f79073;fill-opacity:1;fill-rule:nonzero;stroke:none"
         id="path144" /><path
         d="m 5916.39,4758.23 c -2.4,0.8 -28.27,13.34 -56.26,27.01 -48.33,23.61 -101.59,35.36 -155.37,34.32 l -102.99,-2 c 0,0 -19.77,-170.79 -12.58,-168.99 7.19,1.79 226.52,-37.76 226.52,-37.76 l 100.68,147.42"
         style="fill:#f79073;fill-opacity:1;fill-rule:nonzero;stroke:none"
         id="path146" /><path
         d="m 5637.73,4571.06 h -98.28 v 263.33 h 98.28 v -263.33"
         style="fill:#ebedee;fill-opacity:1;fill-rule:nonzero;stroke:none"
         id="path148" /><path
         d="m 5040.47,2000.18 598.6,22.5 c 35.69,1.34 63.54,31.37 62.2,67.06 -1.03,27.5 -19.34,51.32 -45.64,59.4 l -300.05,92.18 -323.42,-20.06 8.31,-221.08"
         style="fill:#9386ac;fill-opacity:1;fill-rule:nonzero;stroke:none"
         id="path150" /><path
         d="m 5651.68,2006.51 -605.79,-27.27 -1.95,43.42 649.2,29.22 c 1.08,-23.98 -17.48,-44.29 -41.46,-45.37"
         style="fill:#192645;fill-opacity:1;fill-rule:nonzero;stroke:none"
         id="path152" /><path
         d="m 5352.2,2153.49 66.89,78.27"
         style="fill:none;stroke:#192645;stroke-width:14.3824;stroke-linecap:round;stroke-linejoin:miter;stroke-miterlimit:10;stroke-dasharray:none;stroke-opacity:1"
         id="path154" /><path
         d="m 5404.67,2134.09 66.89,78.27"
         style="fill:none;stroke:#192645;stroke-width:14.3824;stroke-linecap:round;stroke-linejoin:miter;stroke-miterlimit:10;stroke-dasharray:none;stroke-opacity:1"
         id="path156" /><path
         d="m 5455.28,2107.24 75.27,88.73"
         style="fill:none;stroke:#192645;stroke-width:14.3824;stroke-linecap:round;stroke-linejoin:miter;stroke-miterlimit:10;stroke-dasharray:none;stroke-opacity:1"
         id="path158" /><g
         id="g160"><g
           id="g162"
           clip-path="url(#clipPath166)"><path
             d="m 5008.5,2212.43 c 34.76,584.29 25.38,1124.48 -20.14,1233.88 -46.68,67.93 -327,235.04 -603.07,358.9 l 155.15,346.08 c 193.76,-86.84 657.3,-310.89 776.56,-515.45 50.35,-86.34 98.64,-254.94 75.05,-850.72 -12.35,-312.05 -27.58,-556.51 -27.58,-556.51 l -355.97,-16.18"
             style="fill:#192645;fill-opacity:1;fill-rule:nonzero;stroke:none"
             id="path168" /><path
             d="m 4333.72,4000.05 c 0,0 704.74,-254.09 786.24,-455.44 81.5,-201.36 52.74,-1327.98 52.74,-1327.98 l -234.91,-9.59 -781.45,1831.36 177.38,-38.35"
             style="fill:#192645;fill-opacity:1;fill-rule:nonzero;stroke:none"
             id="path170" /></g></g><path
         d="m 4465.23,5656.35 301.5,-770.63 c 53.05,-114.79 168.48,-187.81 294.92,-186.56 l 518.55,5.14"
         style="fill:none;stroke:#162134;stroke-width:316.413;stroke-linecap:butt;stroke-linejoin:miter;stroke-miterlimit:10;stroke-dasharray:none;stroke-opacity:1"
         id="path172" /><path
         d="m 4187.89,5882.46 h -71.61 c -65.7,0 -119.46,53.76 -119.46,119.46 v 336.63 c 0,65.71 53.76,119.46 119.46,119.46 h 71.61 c 65.7,0 119.46,-53.75 119.46,-119.46 v -336.63 c 0,-65.7 -53.76,-119.46 -119.46,-119.46"
         style="fill:#f79073;fill-opacity:1;fill-rule:nonzero;stroke:none"
         id="path174" /><path
         d="m 4794.8,6757.31 c -0.53,-7.57 -1.22,-15.12 -2.06,-22.67 -4.25,-36.32 -12.17,-71.61 -23.52,-105.11 -48.4,-143.39 -158.16,-256.87 -296.38,-311.4 -68.63,-27.15 -144.31,-39.68 -222.9,-34.16 -38.86,2.73 -76.1,0.01 -111.47,-2.71 -80.47,-6.19 -151.28,-12.39 -209.4,45.59 -26.97,26.88 -50.96,56.5 -71.2,88.64 -7.96,12.66 -15.44,25.45 -22.27,38.65 -41.67,80.52 -65.82,277.72 -59,374.69 19.21,273.47 250.44,481.45 521.68,474.66 7.74,-0.24 15.47,-0.63 23.19,-1.17 171.4,-12.04 316.94,-107.3 400.15,-243.65 l 0.15,-0.16 c 24.34,-40.04 43.31,-83.73 56.06,-129.78 14.96,-54.28 21.14,-112.13 16.97,-171.42"
         style="fill:#5b293c;fill-opacity:1;fill-rule:nonzero;stroke:none"
         id="path176" /><path
         d="m 4122.11,6657.97 c -0.57,-10.64 -3.02,-20.85 -7.34,-30.2 -4.88,-11.22 -12.37,-23.16 -21.57,-31.5 -16.68,-14.96 -38.98,-25.46 -63.14,-24.16 l -51.92,2.73 -39.84,2.01 5.9,118.22 h 0.14 l 1.01,21.86 0.86,16.98 0.87,15.53 0.14,4.03 h 0.14 l 91.62,-4.74 c 23.15,-1.16 43.72,-11.23 58.68,-26.61 9.06,-9.35 15.96,-20.86 20.14,-33.37 3.45,-9.78 4.89,-20 4.31,-30.78"
         style="fill:#fabbbb;fill-opacity:1;fill-rule:nonzero;stroke:none"
         id="path178" /><path
         d="m 4752.78,6708.16 -9.78,-191.14 -1.44,-28.62 c -0.86,-18.84 -3.31,-37.54 -6.76,-55.52 -32.79,-168.84 -172.88,-298.43 -344.75,-319.72 -5.17,-0.86 -10.5,-1.29 -15.67,-1.58 -18.41,-1.87 -36.96,-2.01 -55.95,-1.15 -18.41,0.86 -36.25,3.17 -53.93,6.47 -34.52,6.33 -67.46,17.12 -98.09,31.64 l -0.29,0.15 c -133.47,63.14 -225.52,196.32 -230.4,348.34 -0.15,4.61 -0.29,9.06 -0.15,13.66 -0.29,5.33 0,10.79 0.29,16.25 v 2.88 l 0.57,12.95 1.87,34.08 5.76,117.07 0.14,1.15 v 0.15 l 1.15,21.71 0.86,16.98 0.86,15.53 0.29,4.03 c 1.59,27.04 7.05,53.21 14.96,78.24 5.32,17.55 11.94,34.66 19.28,51.06 1,2.73 2.01,5.03 3.16,7.48 6.04,13.52 13.08,26.89 20.71,39.55 l 0.14,0.29 c 28.91,48.32 67.89,90.17 113.91,122.54 9.21,6.47 18.7,12.65 28.34,18.4 67.16,39.41 145.98,60.55 229.11,56.24 111.17,-5.75 210.84,-55.66 280.31,-131.89 37.25,-40.7 61.7,-88.45 79.53,-141.24 6.91,-20.13 11.37,-40.84 13.81,-61.99 3.31,-27.17 3.74,-55.22 2.16,-83.99"
         style="fill:#fabda3;fill-opacity:1;fill-rule:nonzero;stroke:none"
         id="path180" /><path
         d="m 3984.18,6693.49 -6.04,-118.65 -4.17,-80.11 -31.5,1.58 c -2.3,0.15 -4.6,0.29 -6.75,0.72 -52.5,6.32 -92.05,54.22 -89.47,106.86 1.3,27.33 13.96,50.05 33.23,67.31 17.26,15.39 39.98,23.59 64.72,23.87 h 0.14 c 2.88,0.29 5.32,0.29 8.2,0 l 31.64,-1.58"
         style="fill:#fabbbb;fill-opacity:1;fill-rule:nonzero;stroke:none"
         id="path182" /><path
         d="m 4608.19,6548.14 v 0 c -9.89,0 -17.98,8.09 -17.98,17.97 v 57.53 c 0,9.89 8.09,17.98 17.98,17.98 9.89,0 17.98,-8.09 17.98,-17.98 v -57.53 c 0,-9.88 -8.09,-17.97 -17.98,-17.97"
         style="fill:#192645;fill-opacity:1;fill-rule:nonzero;stroke:none"
         id="path184" /><path
         d="m 4344.51,6548.14 c -9.89,0 -17.98,8.09 -17.98,17.97 v 57.53 c 0,9.89 8.09,17.98 17.98,17.98 9.89,0 17.98,-8.09 17.98,-17.98 v -57.53 c 0,-9.88 -8.09,-17.97 -17.98,-17.97"
         style="fill:#192645;fill-opacity:1;fill-rule:nonzero;stroke:none"
         id="path186" /><path
         d="m 4307.36,6111.87 c 0,0 -71.92,-4.79 -140.95,36.67 l -0.29,0.15 c -133.47,63.14 -225.52,196.32 -230.4,348.34 -52.5,6.32 -92.05,54.22 -89.47,106.86 1.3,27.33 13.96,50.05 33.23,67.31 17.26,15.39 39.98,23.59 64.72,23.87 v 0.15 l 1.15,21.71 0.86,16.98 0.87,15.53 0.14,4.03 h 0.14 c 1.59,27.04 7.05,53.22 14.96,78.24 54.37,30.35 109.74,36.1 141.24,-31.93 0,0 -3.17,-30.78 -5.9,-77.66 -2.16,-35.09 -4.17,-79.11 -4.46,-125.85 -0.86,-96.08 4.89,-203.51 29.63,-268.67 52.64,-139.07 184.53,-215.73 184.53,-215.73"
         style="fill:#f79073;fill-opacity:1;fill-rule:nonzero;stroke:none"
         id="path188" /><path
         d="m 4768.6,6985.22 h -648.36 c -42.57,0 -77.41,34.83 -77.41,77.41 0,42.57 34.84,77.4 77.41,77.4 h 648.36 c 42.58,0 77.41,-34.83 77.41,-77.4 0,-42.58 -34.83,-77.41 -77.41,-77.41"
         style="fill:#5b293c;fill-opacity:1;fill-rule:nonzero;stroke:none"
         id="path190" /><path
         d="m 4909.75,6922.47 c 6.33,-34.88 -5.85,-67.93 -28.25,-90.33 -18.41,-18.41 -44.01,-29.92 -71.91,-29.92 H 4218.4 c -84.79,0 -153.53,-68.73 -153.53,-153.52 v -95.58 c 0,-31.72 -25.95,-57.67 -57.68,-57.67 h -13.66 c -31.85,0 -57.67,25.82 -57.67,57.67 v 287.94 c 0,2.3 0.14,4.45 0.43,6.62 -10.93,16.11 -17.26,35.66 -17.26,56.37 0,28.05 11.51,53.5 29.92,72.06 18.4,18.41 44.01,29.91 71.91,29.91 h 784.54 c 50.04,0 95.41,-34.31 104.35,-83.55"
         style="fill:#5b293c;fill-opacity:1;fill-rule:nonzero;stroke:none"
         id="path192" /><path
         d="m 4708.86,6694.36 h -127.04 c -12.53,0 -22.77,10.24 -22.77,22.77 0,12.52 10.24,22.77 22.77,22.77 h 127.04 c 12.53,0 22.78,-10.25 22.78,-22.77 0,-12.53 -10.25,-22.77 -22.78,-22.77"
         style="fill:#5e2b48;fill-opacity:1;fill-rule:nonzero;stroke:none"
         id="path194" /><path
         d="M 4399.64,6694.36 H 4272.6 c -12.53,0 -22.78,10.24 -22.78,22.77 0,12.52 10.25,22.77 22.78,22.77 h 127.04 c 12.53,0 22.77,-10.25 22.77,-22.77 0,-12.53 -10.24,-22.77 -22.77,-22.77"
         style="fill:#5e2b48;fill-opacity:1;fill-rule:nonzero;stroke:none"
         id="path196" /><path
         d="m 4415.22,6531.36 -59.92,117.45 h 43.15 l 62.32,-112.66 -45.55,-4.79"
         style="fill:#fdded3;fill-opacity:1;fill-rule:nonzero;stroke:none"
         id="path198" /><path
         d="m 4695.68,6531.36 -59.92,117.45 h 43.14 l 62.33,-112.66 -45.55,-4.79"
         style="fill:#fdded3;fill-opacity:1;fill-rule:nonzero;stroke:none"
         id="path200" /><path
         d="m 4710.73,6524.76 h -135.32 c -15.08,0 -27.42,12.34 -27.42,27.41 v 74.63 c 0,15.07 12.34,27.41 27.42,27.41 h 135.32 c 15.08,0 27.41,-12.34 27.41,-27.41 v -74.63 c 0,-15.07 -12.33,-27.41 -27.41,-27.41 z"
         style="fill:none;stroke:#192645;stroke-width:12.9742;stroke-linecap:butt;stroke-linejoin:miter;stroke-miterlimit:10;stroke-dasharray:none;stroke-opacity:1"
         id="path202" /><path
         d="m 4446.33,6524.76 h -148.57 c -15.67,0 -28.5,12.83 -28.5,28.5 v 72.45 c 0,15.67 12.83,28.5 28.5,28.5 h 148.57 c 15.68,0 28.5,-12.83 28.5,-28.5 v -72.45 c 0,-15.67 -12.82,-28.5 -28.5,-28.5 z"
         style="fill:none;stroke:#192645;stroke-width:13.49;stroke-linecap:butt;stroke-linejoin:miter;stroke-miterlimit:10;stroke-dasharray:none;stroke-opacity:1"
         id="path204" /><path
         d="m 4550.81,6370.22 c -21.27,-22.05 -54.24,-34.92 -90.57,-33.05 -30.45,1.56 -57.51,13.18 -76.61,31.1"
         style="fill:none;stroke:#f36543;stroke-width:14.3824;stroke-linecap:butt;stroke-linejoin:miter;stroke-miterlimit:10;stroke-dasharray:none;stroke-opacity:1"
         id="path206" /><path
         d="m 4559.86,6473.99 -2.46,0.07 c -0.6,-20.42 -18.3,-36.64 -62.12,-35.38 l -5.15,160.99 c 46.75,-59.32 66.52,-92.28 69.73,-125.68"
         style="fill:#f79073;fill-opacity:1;fill-rule:nonzero;stroke:none"
         id="path208" /><path
         d="m 4477.55,6588.89 76.7,-2.4"
         style="fill:none;stroke:#192645;stroke-width:13.49;stroke-linecap:butt;stroke-linejoin:miter;stroke-miterlimit:10;stroke-dasharray:none;stroke-opacity:1"
         id="path210" /><path
         d="M 4658.86,5501.19 V 4047.99 L 3602.5,3932.5 3550.55,5501.19 c 0,233.58 169.14,427.88 391.63,466.99 26.76,4.61 54.23,7.06 82.41,7.06 h 160.23 c 261.76,0 474.04,-212.29 474.04,-474.05"
         style="fill:#192645;fill-opacity:1;fill-rule:nonzero;stroke:none"
         id="path212" /><path
         d="m 4575.01,3920.42 c 0,-65.44 -23.3,-125.41 -61.99,-172.16 -49.47,-59.97 -124.55,-98.23 -208.54,-98.23 h -454.63 c -13.52,0 -26.75,1 -39.7,3.02 -33.37,4.75 -64.72,15.82 -92.91,31.78 -5.03,2.74 -9.92,5.76 -14.67,8.92 -74.06,48.18 -123.11,131.75 -123.11,226.67 l 8.34,144.26 979.3,8.48 7.91,-152.74"
         style="fill:#192645;fill-opacity:1;fill-rule:nonzero;stroke:none"
         id="path214" /><path
         d="m 4372.08,4300 h -365.41 v 1704 h 365.41 V 4300"
         style="fill:#ebedee;fill-opacity:1;fill-rule:nonzero;stroke:none"
         id="path216" /><path
         d="m 4201.61,5780.31 -106.57,151.74 98.18,58.73 114.96,-58.73 -106.57,-151.74"
         style="fill:#192645;fill-opacity:1;fill-rule:nonzero;stroke:none"
         id="path218" /><path
         d="m 4239.29,4258.65 -119.02,160.61 47.78,1432.49 73.89,-7.09 108.03,-1419.54 -110.68,-166.47"
         style="fill:#192645;fill-opacity:1;fill-rule:nonzero;stroke:none"
         id="path220" /><path
         d="m 4378.4,5863.63 -171.4,117.34 -200.32,-117.34 -14.18,144.42 h 385.9 v -144.42"
         style="fill:#ffffff;fill-opacity:1;fill-rule:nonzero;stroke:none"
         id="path222" /><path
         d="m 4292.65,2103.22 560.16,-212.27 c 33.4,-12.65 70.74,4.16 83.39,37.57 9.75,25.72 2.16,54.8 -18.91,72.47 l -240.51,201.7 -305.73,107.41 -78.4,-206.88"
         style="fill:#9386ac;fill-opacity:1;fill-rule:nonzero;stroke:none"
         id="path224" /><path
         d="m 4858.13,1871.15 -568.64,210.67 15.1,40.75 609.39,-225.77 c -8.34,-22.51 -33.34,-33.99 -55.85,-25.65"
         style="fill:#192645;fill-opacity:1;fill-rule:nonzero;stroke:none"
         id="path226" /><path
         d="m 4754.07,2804.91 c -7.91,-309.36 -35.24,-592.26 -36.38,-604.06 l -200.78,19.57 -176.62,17.11 c 51.2,527.4 48.9,1057.97 -4.46,1171.16 -61.84,58.25 -302.17,164.39 -525.68,244.36 -31.49,11.21 -62.7,21.86 -92.91,31.78 -5.32,1.87 -10.64,3.6 -15.96,5.33 l 1.29,3.59 c 0,0 185.3,325.47 575.65,213.48 82.27,-23.6 149.8,-101.73 234.8,-158.97 44.01,-29.48 81.55,-59.83 108.88,-89.89 77.95,-85.72 147.85,-248.38 132.17,-853.46"
         style="fill:#1a2e4d;fill-opacity:1;fill-rule:nonzero;stroke:none"
         id="path228" /><path
         d="m 4620.17,2142.32 93.49,43.15"
         style="fill:none;stroke:#192645;stroke-width:14.3824;stroke-linecap:round;stroke-linejoin:miter;stroke-miterlimit:10;stroke-dasharray:none;stroke-opacity:1"
         id="path230" /><path
         d="m 4659.72,2102.77 93.49,43.14"
         style="fill:none;stroke:#192645;stroke-width:14.3824;stroke-linecap:round;stroke-linejoin:miter;stroke-miterlimit:10;stroke-dasharray:none;stroke-opacity:1"
         id="path232" /><path
         d="m 4694.48,2057.22 105.47,49.14"
         style="fill:none;stroke:#192645;stroke-width:14.3824;stroke-linecap:round;stroke-linejoin:miter;stroke-miterlimit:10;stroke-dasharray:none;stroke-opacity:1"
         id="path234" /><path
         d="m 3959.73,5318.39 -409.18,167.7 v 15.1 c 0,233.58 169.14,427.88 391.63,466.99 1.02,-0.85 2.16,-1.72 3.17,-2.58 l 14.38,-647.21"
         style="fill:#1a2e4d;fill-opacity:1;fill-rule:nonzero;stroke:none"
         id="path236" /><path
         d="m 4516.91,2220.42 -176.62,17.11 c 51.2,527.4 48.9,1057.97 -4.46,1171.16 -61.84,58.25 -302.17,164.39 -525.68,244.36 -33.37,4.75 -64.72,15.82 -92.91,31.78 -5.32,1.87 -10.64,3.6 -15.96,5.33 l 1.29,3.59 c -74.06,48.18 -123.11,131.75 -123.11,226.67 l 8.34,144.26 156.2,-21.44 c -3.74,-11.21 -24.88,-121.38 13.66,-187.54 10.79,-18.85 26.46,-34.09 48.75,-42.58 61.13,-23.3 293.7,-80.25 478.8,-163.09 119.66,-53.65 219.62,-118.23 240.32,-191.72 48.62,-172.59 -0.71,-1096.8 -8.62,-1237.89"
         style="fill:#192645;fill-opacity:1;fill-rule:nonzero;stroke:none"
         id="path238" /><path
         d="M 6579.78,4473.47 H 5638.2 c -61.59,0 -102.29,64.03 -76.15,119.8 l 328.39,700.58 c 28.64,61.08 90.01,100.1 157.47,100.1 h 866.87 c 44.91,0 74.59,-46.69 55.53,-87.36 l -390.53,-833.12"
         style="fill:#b0a5c7;fill-opacity:1;fill-rule:nonzero;stroke:none"
         id="path240" /><path
         d="m 5641.69,4471.07 h -671.38 c -27.12,0 -49.3,22.19 -49.3,49.3 0,27.12 22.18,49.3 49.3,49.3 h 671.38 c 27.12,0 49.3,-22.18 49.3,-49.3 0,-27.11 -22.18,-49.3 -49.3,-49.3"
         style="fill:#b0a5c7;fill-opacity:1;fill-rule:nonzero;stroke:none"
         id="path242" /><path
         d="m 5400.42,4508.23 h -95.88 v 28.76 h 95.88 v -28.76"
         style="fill:#192645;fill-opacity:1;fill-rule:nonzero;stroke:none"
         id="path244" /><path
         d="m 5275.77,4508.23 h -69.51 v 28.76 h 69.51 v -28.76"
         style="fill:#192645;fill-opacity:1;fill-rule:nonzero;stroke:none"
         id="path246" /><path
         d="m 6565.6,4473.47 h -943.78 c -33.89,0 -56.27,35.22 -41.89,65.9 l 353.66,754.48 c 28.63,61.08 90.01,100.1 157.47,100.1 h 866.87 c 44.91,0 74.58,-46.69 55.52,-87.36 l -366.19,-781.22 c -14.85,-31.67 -46.68,-51.9 -81.66,-51.9"
         style="fill:#7d7591;fill-opacity:1;fill-rule:nonzero;stroke:none"
         id="path248" /><path
         d="m 6359.41,4879.94 c -22.37,-52.35 -64.19,-84.66 -93.4,-72.17 -29.22,12.48 -34.77,65.04 -12.4,117.39 22.37,52.34 64.2,84.65 93.41,72.17 29.22,-12.49 34.76,-65.05 12.39,-117.39"
         style="fill:#ffffff;fill-opacity:1;fill-rule:nonzero;stroke:none"
         id="path250" /><path
         d="m 4887.34,4690.9 234.33,37.45 c 17.11,2.74 28.88,18.98 26.14,36.09 -2.73,17.11 -18.97,28.88 -36.08,26.14 l -234.34,-37.45 c -17.11,-2.74 -28.88,-18.98 -26.14,-36.09 2.73,-17.12 18.97,-28.88 36.09,-26.14"
         style="fill:#f79073;fill-opacity:1;fill-rule:nonzero;stroke:none"
         id="path252" /><path
         d="m 4961.95,4627.54 188.15,30.07 c 17.12,2.74 28.88,18.98 26.15,36.09 -2.74,17.11 -18.98,28.88 -36.09,26.14 L 4952,4689.77 c -17.11,-2.74 -28.87,-18.98 -26.14,-36.09 2.74,-17.11 18.98,-28.88 36.09,-26.14"
         style="fill:#f79073;fill-opacity:1;fill-rule:nonzero;stroke:none"
         id="path254" /><path
         d="m 4918.45,4545.38 222.7,35.59 c 17.11,2.74 28.88,18.98 26.14,36.09 -2.73,17.11 -18.97,28.88 -36.08,26.14 l -222.71,-35.6 c -17.11,-2.73 -28.87,-18.97 -26.14,-36.08 2.74,-17.12 18.98,-28.88 36.09,-26.14"
         style="fill:#f79073;fill-opacity:1;fill-rule:nonzero;stroke:none"
         id="path256" /><path
         d="m 4988.49,4751.49 c -2.51,-0.3 -31.26,0.09 -62.4,0.61 -53.78,0.9 -107.01,-11.03 -155.28,-34.77 l -92.42,-45.46 c 0,0 52.93,-157.08 60.23,-158.4 178.19,-32.21 239.32,48.69 239.32,48.69 l 10.55,189.33"
         style="fill:#f79073;fill-opacity:1;fill-rule:nonzero;stroke:none"
         id="path258" /><path
         d="m 4850.52,4495.02 h -79.1 v 257.09 h 79.1 v -257.09"
         style="fill:#ebedee;fill-opacity:1;fill-rule:nonzero;stroke:none"
         id="path260" /><path
         d="m 4253.06,4467.12 c -186.5,0 -357.01,108.86 -435.36,278.41 l -3.87,8.37 -244.11,745.42 300.71,98.47 237.88,-726.42 c 28.22,-54.2 84.98,-88.5 146.36,-87.83 l 518.55,5.14 3.13,-316.4 -518.55,-5.14 c -1.57,-0.01 -3.17,-0.02 -4.74,-0.02"
         style="fill:#1a2e4d;fill-opacity:1;fill-rule:nonzero;stroke:none"
         id="path262" /><path
         d="m 4344.51,4062.65 h -263.68 v 90.81 h 263.68 v -90.81"
         style="fill:#9386ac;fill-opacity:1;fill-rule:nonzero;stroke:none"
         id="path264" /><path
         d="m 3787.19,1742.01 h -230.12 v 2492.95 h 230.12 V 1742.01"
         style="fill:#7d7591;fill-opacity:1;fill-rule:nonzero;stroke:none"
         id="path266" /><path
         d="M 6730.8,4235 V 1742 h -230.1 v 2493 h 230.1"
         style="fill:#7d7591;fill-opacity:1;fill-rule:nonzero;stroke:none"
         id="path268" /><path
         d="M 7852.6,4235 V 1742 h -230.1 v 2493 h 230.1"
         style="fill:#7d7591;fill-opacity:1;fill-rule:nonzero;stroke:none"
         id="path270" /><path
         d="m 6500.7,4235 h 230.1 V 3412.7 L 6500.7,3298.5 V 4235"
         style="fill:#2f3564;fill-opacity:1;fill-rule:nonzero;stroke:none"
         id="path272" /><path
         d="M 7852.6,4235 V 3969.4 L 7622.5,3855.2 V 4235 h 230.1"
         style="fill:#2f3564;fill-opacity:1;fill-rule:nonzero;stroke:none"
         id="path274" /><path
         d="M 3789.11,4239.91 V 3970.88 L 3556.04,3855.2 v 384.71 h 233.07"
         style="fill:#2f3564;fill-opacity:1;fill-rule:nonzero;stroke:none"
         id="path276" /><path
         d="m 2219.13,4160.58 h 5165.43 v 209.46 c 0,55.98 -45.38,101.36 -101.36,101.36 H 2320.49 c -55.98,0 -101.36,-45.38 -101.36,-101.36 v -209.46"
         style="fill:#2f3564;fill-opacity:1;fill-rule:nonzero;stroke:none"
         id="path278" /><path
         d="M 4103.08,4461.65 H 2974.97 v 240.02 h 1128.11 v -240.02"
         style="fill:#c4c3c8;fill-opacity:1;fill-rule:nonzero;stroke:none"
         id="path280" /><path
         d="m 4106.06,4458.92 h -521.7 v 245.47 h 521.7 v -245.47"
         style="fill:#ebedee;fill-opacity:1;fill-rule:nonzero;stroke:none"
         id="path282" /><path
         d="M 2975.96,4657.49 H 4105.07"
         style="fill:none;stroke:#9386ac;stroke-width:17.691;stroke-linecap:butt;stroke-linejoin:miter;stroke-miterlimit:10;stroke-dasharray:none;stroke-opacity:1"
         id="path284" /><path
         d="M 2975.96,4609.21 H 4105.07"
         style="fill:none;stroke:#9386ac;stroke-width:17.691;stroke-linecap:butt;stroke-linejoin:miter;stroke-miterlimit:10;stroke-dasharray:none;stroke-opacity:1"
         id="path286" /><path
         d="M 2975.96,4560.94 H 4105.07"
         style="fill:none;stroke:#9386ac;stroke-width:17.691;stroke-linecap:butt;stroke-linejoin:miter;stroke-miterlimit:10;stroke-dasharray:none;stroke-opacity:1"
         id="path288" /><path
         d="M 2975.96,4512.66 H 4105.07"
         style="fill:none;stroke:#9386ac;stroke-width:17.691;stroke-linecap:butt;stroke-linejoin:miter;stroke-miterlimit:10;stroke-dasharray:none;stroke-opacity:1"
         id="path290" /><path
         d="M 2690.39,1742.37 H 1106.48 V 3771.58 H 2690.39 V 1742.37"
         style="fill:#5e2b48;fill-opacity:1;fill-rule:nonzero;stroke:none"
         id="path292" /><path
         d="M 3379.02,1742.37 H 1695.1 V 3771.58 H 3379.02 V 1742.37"
         style="fill:#5e2b48;fill-opacity:1;fill-rule:nonzero;stroke:none"
         id="path294" /><path
         d="M 3279.42,3086.01 H 1802.83 v 536.95 h 1476.59 v -536.95"
         style="fill:#f36543;fill-opacity:1;fill-rule:nonzero;stroke:none"
         id="path296" /><path
         d="M 3279.42,2455.94 H 1802.83 v 536.94 h 1476.59 v -536.94"
         style="fill:#f36543;fill-opacity:1;fill-rule:nonzero;stroke:none"
         id="path298" /><path
         d="M 3279.42,1825.87 H 1802.83 v 536.94 h 1476.59 v -536.94"
         style="fill:#f36543;fill-opacity:1;fill-rule:nonzero;stroke:none"
         id="path300" /><path
         d="m 2799.6,3325.72 h -369.15 c -15.82,0 -28.77,12.95 -28.77,28.77 0,15.82 12.95,28.76 28.77,28.76 h 369.15 c 15.82,0 28.76,-12.94 28.76,-28.76 0,-15.82 -12.94,-28.77 -28.76,-28.77"
         style="fill:#ffffff;fill-opacity:1;fill-rule:nonzero;stroke:none"
         id="path302" /><path
         d="m 2813.98,2700.09 h -369.15 c -15.82,0 -28.76,12.94 -28.76,28.76 0,15.82 12.94,28.77 28.76,28.77 h 369.15 c 15.82,0 28.76,-12.95 28.76,-28.77 0,-15.82 -12.94,-28.76 -28.76,-28.76"
         style="fill:#ffffff;fill-opacity:1;fill-rule:nonzero;stroke:none"
         id="path304" /><path
         d="m 2813.98,2074.45 h -369.15 c -15.82,0 -28.76,12.94 -28.76,28.76 0,15.83 12.94,28.77 28.76,28.77 h 369.15 c 15.82,0 28.76,-12.94 28.76,-28.77 0,-15.82 -12.94,-28.76 -28.76,-28.76"
         style="fill:#ffffff;fill-opacity:1;fill-rule:nonzero;stroke:none"
         id="path306" /><path
         d="M 4714.86,4803.64 V 4450.7 h -294.84 v 352.94 c 0,15.54 12.65,28.19 28.19,28.19 h 238.46 c 15.53,0 28.19,-12.65 28.19,-28.19"
         style="fill:#f8a12b;fill-opacity:1;fill-rule:nonzero;stroke:none"
         id="path308" /><path
         d="m 4423.65,4511.09 c -3.85,2.22 -94.36,55.23 -102.43,148.08 -3.08,35.41 10.32,57.34 22.1,69.51 32.4,33.46 86.23,31.53 92.26,31.21 l -2.35,-43.09 c -10.94,0.51 -43.12,-1.71 -59,-18.22 -8.1,-8.43 -11.38,-20.09 -10.03,-35.67 6.15,-70.66 80.2,-113.97 80.94,-114.4 l -21.49,-37.42"
         style="fill:#f14e30;fill-opacity:1;fill-rule:nonzero;stroke:none"
         id="path310" /><path
         d="m 4642.05,4607.11 h -84.5 c -29.29,0 -53.04,23.74 -53.04,53.03 0,29.29 23.75,53.04 53.04,53.04 h 84.5 c 29.29,0 53.03,-23.75 53.03,-53.04 0,-29.29 -23.74,-53.03 -53.03,-53.03"
         style="fill:#d2322f;fill-opacity:1;fill-rule:nonzero;stroke:none"
         id="path312" /><path
         d="m 4577.07,4450.7 h -157.05 v 352.94 c 0,15.54 12.65,28.19 28.19,28.19 h 9.49 c 0.43,-18.41 5.46,-159.21 45.02,-260.61 34.37,-88.3 65,-114.34 74.35,-120.52"
         style="fill:#f14e30;fill-opacity:1;fill-rule:nonzero;stroke:none"
         id="path314" /><path
         d="m 6886.6,4656.43 h 791.04"
         style="fill:none;stroke:#9386ac;stroke-width:14.3824;stroke-linecap:butt;stroke-linejoin:miter;stroke-miterlimit:10;stroke-dasharray:none;stroke-opacity:1"
         id="path316" /><path
         d="m 6886.6,4610.89 h 791.04"
         style="fill:none;stroke:#9386ac;stroke-width:14.3824;stroke-linecap:butt;stroke-linejoin:miter;stroke-miterlimit:10;stroke-dasharray:none;stroke-opacity:1"
         id="path318" /><path
         d="m 6886.6,4575.35 h 791.04"
         style="fill:none;stroke:#9386ac;stroke-width:14.3824;stroke-linecap:butt;stroke-linejoin:miter;stroke-miterlimit:10;stroke-dasharray:none;stroke-opacity:1"
         id="path320" /><path
         d="m 6886.6,4529.8 h 791.04"
         style="fill:none;stroke:#9386ac;stroke-width:14.3824;stroke-linecap:butt;stroke-linejoin:miter;stroke-miterlimit:10;stroke-dasharray:none;stroke-opacity:1"
         id="path322" /><path
         d="m 3473.17,4697.6 189.37,407.5 186.97,-402.71 z"
         style="fill:#ffffff;fill-opacity:1;fill-rule:nonzero;stroke:none"
         id="path324" /><path
         d="m 3662.54,4709.58 h -340.38 v 393.12 h 340.38 v -393.12"
         style="fill:#ffffff;fill-opacity:1;fill-rule:nonzero;stroke:none"
         id="path326" /><path
         d="m 3147.17,4697.6 172.59,402.7 186.97,-402.7 z"
         style="fill:#2f3564;fill-opacity:1;fill-rule:nonzero;stroke:none"
         id="path328" /><path
         d="m 3631.38,5035.58 h -170.19 v 16.78 h 170.19 v -16.78"
         style="fill:#9386ac;fill-opacity:1;fill-rule:nonzero;stroke:none"
         id="path330" /><path
         d="m 3645.76,5002.02 h -170.19 v 16.78 h 170.19 v -16.78"
         style="fill:#9386ac;fill-opacity:1;fill-rule:nonzero;stroke:none"
         id="path332" /><path
         d="m 3500.15,4948.39 79.02,-186.29 173.48,4.23 -84.3,180.68 z m 69.7,-201.15 -91.24,215.11 198.61,-0.78 97.99,-208.54 -205.36,-5.79"
         style="fill:#9386ac;fill-opacity:1;fill-rule:nonzero;stroke:none"
         id="path334" /><path
         d="m 3510.93,4917.53 h 181.82"
         style="fill:none;stroke:#9386ac;stroke-width:14.6107;stroke-linecap:butt;stroke-linejoin:miter;stroke-miterlimit:10;stroke-dasharray:none;stroke-opacity:1"
         id="path336" /><path
         d="m 3526.7,4878.28 h 181.82"
         style="fill:none;stroke:#9386ac;stroke-width:14.6107;stroke-linecap:butt;stroke-linejoin:miter;stroke-miterlimit:10;stroke-dasharray:none;stroke-opacity:1"
         id="path338" /><path
         d="m 3539.69,4839.02 h 181.82"
         style="fill:none;stroke:#9386ac;stroke-width:14.6107;stroke-linecap:butt;stroke-linejoin:miter;stroke-miterlimit:10;stroke-dasharray:none;stroke-opacity:1"
         id="path340" /><path
         d="m 3561.02,4799.77 h 181.82"
         style="fill:none;stroke:#9386ac;stroke-width:14.6107;stroke-linecap:butt;stroke-linejoin:miter;stroke-miterlimit:10;stroke-dasharray:none;stroke-opacity:1"
         id="path342" /><path
         d="m 3638.57,4950.79 84.5,-187.87"
         style="fill:none;stroke:#9386ac;stroke-width:14.6107;stroke-linecap:butt;stroke-linejoin:miter;stroke-miterlimit:10;stroke-dasharray:none;stroke-opacity:1"
         id="path344" /><path
         d="m 3588.23,4949.89 84.5,-187.87"
         style="fill:none;stroke:#9386ac;stroke-width:14.6107;stroke-linecap:butt;stroke-linejoin:miter;stroke-miterlimit:10;stroke-dasharray:none;stroke-opacity:1"
         id="path346" /><path
         d="m 3538.76,4953.46 83.63,-195.04"
         style="fill:none;stroke:#9386ac;stroke-width:14.6107;stroke-linecap:butt;stroke-linejoin:miter;stroke-miterlimit:10;stroke-dasharray:none;stroke-opacity:1"
         id="path348" /><path
         d="m 7689.96,4737.69 -47.21,8.36 115.3,651.47 47.21,-8.36 -115.3,-651.47"
         style="fill:#424fa8;fill-opacity:1;fill-rule:nonzero;stroke:none"
         id="path350" /><path
         d="m 7787.67,5207.27 -73.17,12.95 34.67,195.91 73.18,-12.95 -34.68,-195.91"
         style="fill:#424fa8;fill-opacity:1;fill-rule:nonzero;stroke:none"
         id="path352" /><path
         d="m 7611.26,4654.52 -47.78,4 55.29,659.28 28.9,42.17 18.88,-46.17 -55.29,-659.28"
         style="fill:#5e2b48;fill-opacity:1;fill-rule:nonzero;stroke:none"
         id="path354" /><path
         d="m 7544.86,4620.83 -47.06,-9.16 -126.43,649.4 16.32,48.45 30.74,-39.29 126.43,-649.4"
         style="fill:#1a2e4d;fill-opacity:1;fill-rule:nonzero;stroke:none"
         id="path356" /><path
         d="m 7650.65,4469.77 h -204.9 l -67.18,542.44 h 339.27 l -67.19,-542.44"
         style="fill:#f14e30;fill-opacity:1;fill-rule:nonzero;stroke:none"
         id="path358" /><path
         d="m 7727.91,4469.77 h -204.9 l -30.23,542.44 h 302.32 l -67.19,-542.44"
         style="fill:#f8a12b;fill-opacity:1;fill-rule:nonzero;stroke:none"
         id="path360" /><path
         d="m 2693.33,4038 v -268 h -831.94 c -58.1,0 -107.73,37.11 -126.29,88.95 -4.98,14.03 -7.77,29.22 -7.77,45.11 0,36.88 14.96,70.39 39.2,94.74 24.35,24.24 57.87,39.2 94.86,39.2 h 831.94"
         style="fill:#424fa8;fill-opacity:1;fill-rule:nonzero;stroke:none"
         id="path362" /><path
         d="M 2379.88,3858.95 V 3770 h -518.49 c -58.1,0 -107.73,37.11 -126.29,88.95 h 644.78"
         style="fill:#31427f;fill-opacity:1;fill-rule:nonzero;stroke:none"
         id="path364" /><path
         d="m 3007.77,4038.05 v -268.08 l -831.93,0.01 c -73.99,0 -134.04,60.05 -134.04,134.03 0,36.93 15.01,70.47 39.22,94.82 24.35,24.21 57.9,39.22 94.82,39.22 h 831.93"
         style="fill:#192645;fill-opacity:1;fill-rule:nonzero;stroke:none"
         id="path366" /><path
         d="m 3007.77,3992.09 v -171.87 l -795.78,0.01 c -47.49,0 -85.94,38.44 -85.94,85.93 0,23.74 9.65,45.19 25.13,60.81 15.62,15.48 37.07,25.12 60.81,25.12 h 795.78"
         style="fill:#ebedee;fill-opacity:1;fill-rule:nonzero;stroke:none"
         id="path368" /><path
         d="m 2711.43,4570.74 v -268.07 l -831.93,0.01 c -73.99,0 -134.04,60.04 -134.04,134.03 0,36.92 15.02,70.47 39.22,94.82 24.35,24.21 57.9,39.22 94.82,39.22 l 831.93,-0.01"
         style="fill:#f8a12b;fill-opacity:1;fill-rule:nonzero;stroke:none"
         id="path370" /><path
         d="m 2395.34,4481.26 v 88.95 h -518.49 c -58.1,0 -107.73,-37.11 -126.28,-88.95 h 644.77"
         style="fill:#fbd41f;fill-opacity:1;fill-rule:nonzero;stroke:none"
         id="path372" /><path
         d="m 3007.77,4570.74 v -268.07 h -831.93 c -73.99,0 -134.04,60.05 -134.04,134.04 0,36.92 15.01,70.47 39.22,94.82 24.35,24.21 57.9,39.22 94.82,39.22 l 831.93,-0.01"
         style="fill:#f36543;fill-opacity:1;fill-rule:nonzero;stroke:none"
         id="path374" /><path
         d="m 3007.77,4524.79 v -171.87 h -795.78 c -47.49,0 -85.94,38.45 -85.94,85.94 0,23.74 9.65,45.18 25.13,60.81 15.62,15.47 37.07,25.12 60.81,25.12 h 795.78"
         style="fill:#ebedee;fill-opacity:1;fill-rule:nonzero;stroke:none"
         id="path376" /><path
         d="m 2759.78,4301.13 v -268.12 h -831.94 c -73.99,0 -133.94,60.07 -133.94,134.06 0,22.73 5.68,44.18 15.65,62.97 6.27,11.71 14.27,22.5 23.55,31.89 24.35,24.24 57.86,39.2 94.74,39.2 h 831.94"
         style="fill:#94d223;fill-opacity:1;fill-rule:nonzero;stroke:none"
         id="path378" /><path
         d="m 2631.06,4301.13 v -71.09 h -821.51 c 6.27,11.71 14.27,22.5 23.55,31.89 24.35,24.24 57.86,39.2 94.74,39.2 h 703.22"
         style="fill:#63a130;fill-opacity:1;fill-rule:nonzero;stroke:none"
         id="path380" /><path
         d="m 2631.06,4032.9 v 71.09 h -821.51 c 6.27,-11.72 14.27,-22.5 23.55,-31.89 24.35,-24.24 57.86,-39.2 94.74,-39.2 h 703.22"
         style="fill:#63a130;fill-opacity:1;fill-rule:nonzero;stroke:none"
         id="path382" /><path
         d="m 3171.06,4301.12 v -268.07 h -831.93 c -73.99,0 -134.04,60.05 -134.04,134.04 0,36.92 15.01,70.47 39.22,94.82 24.35,24.2 57.9,39.22 94.82,39.22 l 831.93,-0.01"
         style="fill:#468632;fill-opacity:1;fill-rule:nonzero;stroke:none"
         id="path384" /><path
         d="M 3171.06,4255.17 V 4083.3 h -795.78 c -47.49,0 -85.94,38.45 -85.94,85.94 0,23.74 9.65,45.18 25.13,60.81 15.62,15.47 37.07,25.12 60.81,25.12 h 795.78"
         style="fill:#ebedee;fill-opacity:1;fill-rule:nonzero;stroke:none"
         id="path386" /><path
         d="m 1893.01,4477.7 c -111.3,-151.57 -334.59,-176.73 -334.59,-176.73 0,0 -42.83,220.58 68.47,372.15 111.3,151.57 334.59,176.72 334.59,176.72 0,0 42.83,-220.58 -68.47,-372.14"
         style="fill:#497f2f;fill-opacity:1;fill-rule:nonzero;stroke:none"
         id="path388" /><path
         d="m 1425.64,4568.33 c 102.03,-100.56 96.46,-271.65 96.46,-271.65 0,0 -170.99,-8.05 -273.02,92.51 -102.03,100.56 -96.47,271.65 -96.47,271.65 0,0 171,8.05 273.03,-92.51"
         style="fill:#386834;fill-opacity:1;fill-rule:nonzero;stroke:none"
         id="path390" /><path
         d="m 1678.52,4644.4 c 20.73,-186.9 -126.54,-356.61 -126.54,-356.61 0,0 -180.89,133.32 -201.62,320.21 -20.72,186.9 126.55,356.61 126.55,356.61 0,0 180.88,-133.31 201.61,-320.21"
         style="fill:#59b84c;fill-opacity:1;fill-rule:nonzero;stroke:none"
         id="path392" /><path
         d="M 1664.71,3771.42 H 1277.4 l -126.99,565.09 h 641.29 l -126.99,-565.09"
         style="fill:#5e2b48;fill-opacity:1;fill-rule:nonzero;stroke:none"
         id="path394" /><path
         d="m 1810.74,3771.42 h -387.3 l -57.15,565.09 h 571.44 l -126.99,-565.09"
         style="fill:#9d4534;fill-opacity:1;fill-rule:nonzero;stroke:none"
         id="path396" /><path
         d="m 3360.14,4160.58 h 4877.78 v 209.46 c 0,55.98 -45.38,101.36 -101.36,101.36 H 3461.5 c -55.98,0 -101.36,-45.38 -101.36,-101.36 v -209.46"
         style="fill:#5273c2;fill-opacity:1;fill-rule:nonzero;stroke:none"
         id="path398" /></g></g></svg>
